<?xml version="1.0" encoding="iso-8859-1"?>
<!-- Generator: Adobe Illustrator 19.0.0, SVG Export Plug-In . SVG Version: 6.00 Build 0)  -->
<svg version="1.1" id="Layer_1" xmlns="http://www.w3.org/2000/svg" xmlns:xlink="http://www.w3.org/1999/xlink" x="0px" y="0px"
	 viewBox="0 0 512 512" style="enable-background:new 0 0 512 512;" xml:space="preserve">
<g>
	<g>
		<path style="fill:#fff;" d="M112,0H16C7.168,0,0,7.168,0,16v96c0,8.832,7.168,16,16,16h96c8.832,0,16-7.168,16-16V16C128,7.168,120.832,0,112,0z
			 M96,96H32V32h64V96z"/>
	</g>
</g>
<g>
	<g>
		<path style="fill:#fff;" d="M112,192H16c-8.832,0-16,7.168-16,16v96c0,8.832,7.168,16,16,16h96c8.832,0,16-7.168,16-16v-96
			C128,199.168,120.832,192,112,192z M96,288H32v-64h64V288z"/>
	</g>
</g>
<g>
	<g>
		<path style="fill:#fff;" d="M112,384H16c-8.832,0-16,7.168-16,16v96c0,8.832,7.168,16,16,16h96c8.832,0,16-7.168,16-16v-96
			C128,391.168,120.832,384,112,384z M96,480H32v-64h64V480z"/>
	</g>
</g>
<g>
	<g>
		<rect style="fill:#fff;" x="192" y="16" width="320" height="32"/>
	</g>
</g>
<g>
	<g>
		<rect style="fill:#fff;" x="192" y="80" width="320" height="32"/>
	</g>
</g>
<g>
	<g>
		<rect style="fill:#fff;" x="192" y="208" width="320" height="32"/>
	</g>
</g>
<g>
	<g>
		<rect style="fill:#fff;" x="192" y="272" width="320" height="32"/>
	</g>
</g>
<g>
	<g>
		<rect style="fill:#fff;" x="192" y="400" width="320" height="32"/>
	</g>
</g>
<g>
	<g>
		<rect style="fill:#fff;" x="192" y="464" width="320" height="32"/>
	</g>
</g>
<g>
</g>
<g>
</g>
<g>
</g>
<g>
</g>
<g>
</g>
<g>
</g>
<g>
</g>
<g>
</g>
<g>
</g>
<g>
</g>
<g>
</g>
<g>
</g>
<g>
</g>
<g>
</g>
<g>
</g>
</svg>
